<svg xmlns="http://www.w3.org/2000/svg" id="export" class="canvas" preserveAspectRatio="xMidYMid meet" style="position: absolute; margin: 0px;" width="999" height="108"><rect id="background" fill="#fff" pointer-events="all" width="999" height="108"/><g id="origin" transform="translate(4.9, 4.9) scale(1)"><g id="clusters" class="clusters"/><g id="edge-paths" class="edge-paths"><defs><marker id="arrowhead-vee" viewBox="0 0 10 10" refX="9" refY="5" markerUnits="strokeWidth" markerWidth="8" markerHeight="6" orient="auto" style="fill: rgb(0, 0, 0);"><path d="M 0 0 L 10 5 L 0 10 L 4 5 z" style="stroke-width: 1;"/></marker><marker id="arrowhead-vee-select" viewBox="0 0 10 10" refX="9" refY="5" markerUnits="strokeWidth" markerWidth="8" markerHeight="6" orient="auto" style="fill: rgb(238, 0, 0);"><path d="M 0 0 L 10 5 L 0 10 L 4 5 z" style="stroke-width: 1;"/></marker></defs><path class="edge-path" d="M279.6875,49L281.3541666666667,49C283.0208333333333,49,286.3541666666667,49,289.6875,49C293.0208333333333,49,296.3541666666667,49,298.0208333333333,49L299.6875,49" id="edge-21" style="stroke: rgb(0, 0, 0); stroke-width: 1px; fill: none; marker-end: url(&quot;#arrowhead-vee&quot;);"/><path class="edge-path" d="M456.078125,49L457.7447916666667,49C459.4114583333333,49,462.7447916666667,49,466.078125,49C469.4114583333333,49,472.7447916666667,49,474.4114583333333,49L476.078125,49" id="edge-24" style="stroke: rgb(0, 0, 0); stroke-width: 1px; fill: none; marker-end: url(&quot;#arrowhead-vee&quot;);"/><path class="edge-path" d="M576.078125,49L577.7447916666666,49C579.4114583333334,49,582.7447916666666,49,586.078125,49C589.4114583333334,49,592.7447916666666,49,594.4114583333334,49L596.078125,49" id="edge-25" style="stroke: rgb(0, 0, 0); stroke-width: 1px; fill: none; marker-end: url(&quot;#arrowhead-vee&quot;);"/><path class="edge-path" d="M645.9375,49L647.6041666666666,49C649.2708333333334,49,652.6041666666666,49,655.9375,49C659.2708333333334,49,662.6041666666666,49,664.2708333333334,49L665.9375,49" id="edge-26" style="stroke: rgb(0, 0, 0); stroke-width: 1px; fill: none; marker-end: url(&quot;#arrowhead-vee&quot;);"/><path class="edge-path" d="M765.9375,49L767.6041666666666,49C769.2708333333334,49,772.6041666666666,49,775.9375,49C779.2708333333334,49,782.6041666666666,49,784.2708333333334,49L785.9375,49" id="edge-27" style="stroke: rgb(0, 0, 0); stroke-width: 1px; fill: none; marker-end: url(&quot;#arrowhead-vee&quot;);"/><path class="edge-path" d="M223.296875,49L224.96354166666666,49C226.63020833333334,49,229.96354166666666,49,233.296875,49C236.63020833333334,49,239.96354166666666,49,241.63020833333334,49L243.296875,49" id="edge-29" style="stroke: rgb(0, 0, 0); stroke-width: 1px; fill: none; marker-end: url(&quot;#arrowhead-vee&quot;);"/><path class="edge-path" d="M399.6875,49L401.3541666666667,49C403.0208333333333,49,406.3541666666667,49,409.6875,49C413.0208333333333,49,416.3541666666667,49,418.0208333333333,49L419.6875,49" id="edge-32" style="stroke: rgb(0, 0, 0); stroke-width: 1px; fill: none; marker-end: url(&quot;#arrowhead-vee&quot;);"/><path class="edge-path" d="M40.890625,49L47.7578125,49C54.625,49,68.359375,49,82.09375,49C95.828125,49,109.5625,49,116.4296875,49L123.296875,49" id="edge-input" style="stroke: rgb(0, 0, 0); stroke-width: 1px; fill: none; marker-end: url(&quot;#arrowhead-vee&quot;);"/><path class="edge-path" d="M885.9375,49L890.4544270833334,49C894.9713541666666,49,904.0052083333334,49,913.0390625,49C922.0729166666666,49,931.1067708333334,49,935.6236979166666,49L940.140625,49" id="edge-output" style="stroke: rgb(0, 0, 0); stroke-width: 1px; fill: none; marker-end: url(&quot;#arrowhead-vee&quot;);"/></g><g id="edge-labels" class="edge-labels"><g class="edge-label" id="edge-label-edge-input" transform="translate(82.09375,64.5)" style="opacity: 1;"><g transform="translate(-31.203125,-5.5)"><text style="font-family: -apple-system, BlinkMacSystemFont, &quot;Segoe WPC&quot;, &quot;Segoe UI&quot;, Ubuntu, &quot;Droid Sans&quot;, sans-serif, &quot;PingFang SC&quot;; font-size: 10px;"><tspan xml:space="preserve" dy="1em" x="1">128×9×40×60</tspan></text></g></g><g class="edge-label" id="edge-label-edge-output" transform="translate(913.0390625,64.5)" style="opacity: 1;"><g transform="translate(-17.1015625,-5.5)"><text style="font-family: -apple-system, BlinkMacSystemFont, &quot;Segoe WPC&quot;, &quot;Segoe UI&quot;, Ubuntu, &quot;Droid Sans&quot;, sans-serif, &quot;PingFang SC&quot;; font-size: 10px;"><tspan xml:space="preserve" dy="1em" x="1">128×16</tspan></text></g></g></g><g id="nodes" class="nodes"><g id="node-name-Conv_0" class="node graph-node" transform="translate(173.296875,49)" style="opacity: 1;"><g transform="translate(-50,-49)"><g><g class="node-item node-item-type node-item-type-layer" transform="translate(0,0)"><path d="M5,0h90a5,5 0 0 1 5,5v15a0,0 0 0 1 0,0h-100a0,0 0 0 1 0,0v-15a5,5 0 0 1 5,-5z" style="stroke: rgb(0, 0, 0); fill: rgb(51, 85, 136); stroke-width: 0;"/><text x="6" y="14" style="font-family: -apple-system, BlinkMacSystemFont, &quot;Segoe WPC&quot;, &quot;Segoe UI&quot;, Ubuntu, &quot;Droid Sans&quot;, sans-serif, &quot;PingFang SC&quot;; font-size: 11px; text-rendering: geometricprecision; fill: rgb(255, 255, 255);">Conv</text><title>Conv_0</title></g><g class="node-attribute" transform="translate(0,20)"><path d="M0,0h100a0,0 0 0 1 0,0v73a5,5 0 0 1 -5,5h-90a5,5 0 0 1 -5,-5v-73a0,0 0 0 1 0,0z" style="stroke: rgb(0, 0, 0); fill: rgb(255, 255, 255); stroke-width: 0;"/><text id="initializer-30" xml:space="preserve" x="6" y="12" style="font-family: -apple-system, BlinkMacSystemFont, &quot;Segoe WPC&quot;, &quot;Segoe UI&quot;, Ubuntu, &quot;Droid Sans&quot;, sans-serif, &quot;PingFang SC&quot;; font-size: 9px; font-weight: normal; text-rendering: geometricprecision;"><title>float32[16,9,5,5]</title><tspan style="font-weight: bold;">W</tspan><tspan>〈16×9×5×5〉</tspan></text><text id="initializer-31" xml:space="preserve" x="6" y="24" style="font-family: -apple-system, BlinkMacSystemFont, &quot;Segoe WPC&quot;, &quot;Segoe UI&quot;, Ubuntu, &quot;Droid Sans&quot;, sans-serif, &quot;PingFang SC&quot;; font-size: 9px; font-weight: normal; text-rendering: geometricprecision;"><title>float32[16]</title><tspan style="font-weight: bold;">B</tspan><tspan>〈16〉</tspan></text><text xml:space="preserve" x="6" y="36" style="font-family: -apple-system, BlinkMacSystemFont, &quot;Segoe WPC&quot;, &quot;Segoe UI&quot;, Ubuntu, &quot;Droid Sans&quot;, sans-serif, &quot;PingFang SC&quot;; font-size: 9px; font-weight: normal; text-rendering: geometricprecision;"><title>int64[]</title><tspan>dilations</tspan><tspan> = 1, 1</tspan></text><text xml:space="preserve" x="6" y="48" style="font-family: -apple-system, BlinkMacSystemFont, &quot;Segoe WPC&quot;, &quot;Segoe UI&quot;, Ubuntu, &quot;Droid Sans&quot;, sans-serif, &quot;PingFang SC&quot;; font-size: 9px; font-weight: normal; text-rendering: geometricprecision;"><title>int64[]</title><tspan>kernel_shape</tspan><tspan> = 5, 5</tspan></text><text xml:space="preserve" x="6" y="60" style="font-family: -apple-system, BlinkMacSystemFont, &quot;Segoe WPC&quot;, &quot;Segoe UI&quot;, Ubuntu, &quot;Droid Sans&quot;, sans-serif, &quot;PingFang SC&quot;; font-size: 9px; font-weight: normal; text-rendering: geometricprecision;"><title>int64[]</title><tspan>pads</tspan><tspan> = 0, 0, 0, 0</tspan></text><text xml:space="preserve" x="6" y="72" style="font-family: -apple-system, BlinkMacSystemFont, &quot;Segoe WPC&quot;, &quot;Segoe UI&quot;, Ubuntu, &quot;Droid Sans&quot;, sans-serif, &quot;PingFang SC&quot;; font-size: 9px; font-weight: normal; text-rendering: geometricprecision;"><title>int64[]</title><tspan>strides</tspan><tspan> = 2, 2</tspan></text><line class="node" x1="0" x2="100" y1="0" y2="0" style="stroke: rgb(51, 51, 51); fill: none; stroke-width: 1px;"/></g><path class="node border" d="M5,0h90a5,5 0 0 1 5,5v88a5,5 0 0 1 -5,5h-90a5,5 0 0 1 -5,-5v-88a5,5 0 0 1 5,-5z" style="stroke: rgb(51, 51, 51); fill: none; stroke-width: 1px;"/></g></g></g><g id="node-name-Relu_1" class="node graph-node" transform="translate(261.4921875,49)" style="opacity: 1;"><g transform="translate(-18.1953125,-10)"><g><g class="node-item node-item-type node-item-type-activation" transform="translate(0,0)"><path d="M5,0h26.390625a5,5 0 0 1 5,5v10a5,5 0 0 1 -5,5h-26.390625a5,5 0 0 1 -5,-5v-10a5,5 0 0 1 5,-5z" style="stroke: rgb(0, 0, 0); fill: rgb(75, 27, 22); stroke-width: 0;"/><text x="6" y="14" style="font-family: -apple-system, BlinkMacSystemFont, &quot;Segoe WPC&quot;, &quot;Segoe UI&quot;, Ubuntu, &quot;Droid Sans&quot;, sans-serif, &quot;PingFang SC&quot;; font-size: 11px; text-rendering: geometricprecision; fill: rgb(255, 255, 255);">Relu</text><title>Relu_1</title></g><path class="node border" d="M5,0h26.390625a5,5 0 0 1 5,5v10a5,5 0 0 1 -5,5h-26.390625a5,5 0 0 1 -5,-5v-10a5,5 0 0 1 5,-5z" style="stroke: rgb(51, 51, 51); fill: none; stroke-width: 1px;"/></g></g></g><g id="node-name-Conv_2" class="node graph-node" transform="translate(349.6875,49)" style="opacity: 1;"><g transform="translate(-50,-49)"><g><g class="node-item node-item-type node-item-type-layer" transform="translate(0,0)"><path d="M5,0h90a5,5 0 0 1 5,5v15a0,0 0 0 1 0,0h-100a0,0 0 0 1 0,0v-15a5,5 0 0 1 5,-5z" style="stroke: rgb(0, 0, 0); fill: rgb(51, 85, 136); stroke-width: 0;"/><text x="6" y="14" style="font-family: -apple-system, BlinkMacSystemFont, &quot;Segoe WPC&quot;, &quot;Segoe UI&quot;, Ubuntu, &quot;Droid Sans&quot;, sans-serif, &quot;PingFang SC&quot;; font-size: 11px; text-rendering: geometricprecision; fill: rgb(255, 255, 255);">Conv</text><title>Conv_2</title></g><g class="node-attribute" transform="translate(0,20)"><path d="M0,0h100a0,0 0 0 1 0,0v73a5,5 0 0 1 -5,5h-90a5,5 0 0 1 -5,-5v-73a0,0 0 0 1 0,0z" style="stroke: rgb(0, 0, 0); fill: rgb(255, 255, 255); stroke-width: 0;"/><text id="initializer-33" xml:space="preserve" x="6" y="12" style="font-family: -apple-system, BlinkMacSystemFont, &quot;Segoe WPC&quot;, &quot;Segoe UI&quot;, Ubuntu, &quot;Droid Sans&quot;, sans-serif, &quot;PingFang SC&quot;; font-size: 9px; font-weight: normal; text-rendering: geometricprecision;"><title>float32[32,16,5,5]</title><tspan style="font-weight: bold;">W</tspan><tspan>〈32×16×5×5〉</tspan></text><text id="initializer-34" xml:space="preserve" x="6" y="24" style="font-family: -apple-system, BlinkMacSystemFont, &quot;Segoe WPC&quot;, &quot;Segoe UI&quot;, Ubuntu, &quot;Droid Sans&quot;, sans-serif, &quot;PingFang SC&quot;; font-size: 9px; font-weight: normal; text-rendering: geometricprecision;"><title>float32[32]</title><tspan style="font-weight: bold;">B</tspan><tspan>〈32〉</tspan></text><text xml:space="preserve" x="6" y="36" style="font-family: -apple-system, BlinkMacSystemFont, &quot;Segoe WPC&quot;, &quot;Segoe UI&quot;, Ubuntu, &quot;Droid Sans&quot;, sans-serif, &quot;PingFang SC&quot;; font-size: 9px; font-weight: normal; text-rendering: geometricprecision;"><title>int64[]</title><tspan>dilations</tspan><tspan> = 1, 1</tspan></text><text xml:space="preserve" x="6" y="48" style="font-family: -apple-system, BlinkMacSystemFont, &quot;Segoe WPC&quot;, &quot;Segoe UI&quot;, Ubuntu, &quot;Droid Sans&quot;, sans-serif, &quot;PingFang SC&quot;; font-size: 9px; font-weight: normal; text-rendering: geometricprecision;"><title>int64[]</title><tspan>kernel_shape</tspan><tspan> = 5, 5</tspan></text><text xml:space="preserve" x="6" y="60" style="font-family: -apple-system, BlinkMacSystemFont, &quot;Segoe WPC&quot;, &quot;Segoe UI&quot;, Ubuntu, &quot;Droid Sans&quot;, sans-serif, &quot;PingFang SC&quot;; font-size: 9px; font-weight: normal; text-rendering: geometricprecision;"><title>int64[]</title><tspan>pads</tspan><tspan> = 0, 0, 0, 0</tspan></text><text xml:space="preserve" x="6" y="72" style="font-family: -apple-system, BlinkMacSystemFont, &quot;Segoe WPC&quot;, &quot;Segoe UI&quot;, Ubuntu, &quot;Droid Sans&quot;, sans-serif, &quot;PingFang SC&quot;; font-size: 9px; font-weight: normal; text-rendering: geometricprecision;"><title>int64[]</title><tspan>strides</tspan><tspan> = 2, 2</tspan></text><line class="node" x1="0" x2="100" y1="0" y2="0" style="stroke: rgb(51, 51, 51); fill: none; stroke-width: 1px;"/></g><path class="node border" d="M5,0h90a5,5 0 0 1 5,5v88a5,5 0 0 1 -5,5h-90a5,5 0 0 1 -5,-5v-88a5,5 0 0 1 5,-5z" style="stroke: rgb(51, 51, 51); fill: none; stroke-width: 1px;"/></g></g></g><g id="node-name-Relu_3" class="node graph-node" transform="translate(437.8828125,49)" style="opacity: 1;"><g transform="translate(-18.1953125,-10)"><g><g class="node-item node-item-type node-item-type-activation" transform="translate(0,0)"><path d="M5,0h26.390625a5,5 0 0 1 5,5v10a5,5 0 0 1 -5,5h-26.390625a5,5 0 0 1 -5,-5v-10a5,5 0 0 1 5,-5z" style="stroke: rgb(0, 0, 0); fill: rgb(75, 27, 22); stroke-width: 0;"/><text x="6" y="14" style="font-family: -apple-system, BlinkMacSystemFont, &quot;Segoe WPC&quot;, &quot;Segoe UI&quot;, Ubuntu, &quot;Droid Sans&quot;, sans-serif, &quot;PingFang SC&quot;; font-size: 11px; text-rendering: geometricprecision; fill: rgb(255, 255, 255);">Relu</text><title>Relu_3</title></g><path class="node border" d="M5,0h26.390625a5,5 0 0 1 5,5v10a5,5 0 0 1 -5,5h-26.390625a5,5 0 0 1 -5,-5v-10a5,5 0 0 1 5,-5z" style="stroke: rgb(51, 51, 51); fill: none; stroke-width: 1px;"/></g></g></g><g id="node-name-MaxPool_4" class="node graph-node" transform="translate(526.078125,49)" style="opacity: 1;"><g transform="translate(-50,-31)"><g><g class="node-item node-item-type node-item-type-pool" transform="translate(0,0)"><path d="M5,0h90a5,5 0 0 1 5,5v15a0,0 0 0 1 0,0h-100a0,0 0 0 1 0,0v-15a5,5 0 0 1 5,-5z" style="stroke: rgb(0, 0, 0); fill: rgb(51, 85, 51); stroke-width: 0;"/><text x="6" y="14" style="font-family: -apple-system, BlinkMacSystemFont, &quot;Segoe WPC&quot;, &quot;Segoe UI&quot;, Ubuntu, &quot;Droid Sans&quot;, sans-serif, &quot;PingFang SC&quot;; font-size: 11px; text-rendering: geometricprecision; fill: rgb(255, 255, 255);">MaxPool</text><title>MaxPool_4</title></g><g class="node-attribute" transform="translate(0,20)"><path d="M0,0h100a0,0 0 0 1 0,0v37a5,5 0 0 1 -5,5h-90a5,5 0 0 1 -5,-5v-37a0,0 0 0 1 0,0z" style="stroke: rgb(0, 0, 0); fill: rgb(255, 255, 255); stroke-width: 0;"/><text xml:space="preserve" x="6" y="12" style="font-family: -apple-system, BlinkMacSystemFont, &quot;Segoe WPC&quot;, &quot;Segoe UI&quot;, Ubuntu, &quot;Droid Sans&quot;, sans-serif, &quot;PingFang SC&quot;; font-size: 9px; font-weight: normal; text-rendering: geometricprecision;"><title>int64[]</title><tspan>kernel_shape</tspan><tspan> = 3, 3</tspan></text><text xml:space="preserve" x="6" y="24" style="font-family: -apple-system, BlinkMacSystemFont, &quot;Segoe WPC&quot;, &quot;Segoe UI&quot;, Ubuntu, &quot;Droid Sans&quot;, sans-serif, &quot;PingFang SC&quot;; font-size: 9px; font-weight: normal; text-rendering: geometricprecision;"><title>int64[]</title><tspan>pads</tspan><tspan> = 0, 0, 0, 0</tspan></text><text xml:space="preserve" x="6" y="36" style="font-family: -apple-system, BlinkMacSystemFont, &quot;Segoe WPC&quot;, &quot;Segoe UI&quot;, Ubuntu, &quot;Droid Sans&quot;, sans-serif, &quot;PingFang SC&quot;; font-size: 9px; font-weight: normal; text-rendering: geometricprecision;"><title>int64[]</title><tspan>strides</tspan><tspan> = 3, 3</tspan></text><line class="node" x1="0" x2="100" y1="0" y2="0" style="stroke: rgb(51, 51, 51); fill: none; stroke-width: 1px;"/></g><path class="node border" d="M5,0h90a5,5 0 0 1 5,5v52a5,5 0 0 1 -5,5h-90a5,5 0 0 1 -5,-5v-52a5,5 0 0 1 5,-5z" style="stroke: rgb(51, 51, 51); fill: none; stroke-width: 1px;"/></g></g></g><g id="node-name-Flatten_5" class="node graph-node" transform="translate(621.0078125,49)" style="opacity: 1;"><g transform="translate(-24.9296875,-10)"><g><g class="node-item node-item-type node-item-type-shape" transform="translate(0,0)"><path d="M5,0h39.859375a5,5 0 0 1 5,5v10a5,5 0 0 1 -5,5h-39.859375a5,5 0 0 1 -5,-5v-10a5,5 0 0 1 5,-5z" style="stroke: rgb(0, 0, 0); fill: rgb(108, 79, 71); stroke-width: 0;"/><text x="6" y="14" style="font-family: -apple-system, BlinkMacSystemFont, &quot;Segoe WPC&quot;, &quot;Segoe UI&quot;, Ubuntu, &quot;Droid Sans&quot;, sans-serif, &quot;PingFang SC&quot;; font-size: 11px; text-rendering: geometricprecision; fill: rgb(255, 255, 255);">Flatten</text><title>Flatten_5</title></g><path class="node border" d="M5,0h39.859375a5,5 0 0 1 5,5v10a5,5 0 0 1 -5,5h-39.859375a5,5 0 0 1 -5,-5v-10a5,5 0 0 1 5,-5z" style="stroke: rgb(51, 51, 51); fill: none; stroke-width: 1px;"/></g></g></g><g id="node-name-Gemm_6" class="node graph-node" transform="translate(715.9375,49)" style="opacity: 1;"><g transform="translate(-50,-31)"><g><g class="node-item node-item-type node-item-type-layer" transform="translate(0,0)"><path d="M5,0h90a5,5 0 0 1 5,5v15a0,0 0 0 1 0,0h-100a0,0 0 0 1 0,0v-15a5,5 0 0 1 5,-5z" style="stroke: rgb(0, 0, 0); fill: rgb(51, 85, 136); stroke-width: 0;"/><text x="6" y="14" style="font-family: -apple-system, BlinkMacSystemFont, &quot;Segoe WPC&quot;, &quot;Segoe UI&quot;, Ubuntu, &quot;Droid Sans&quot;, sans-serif, &quot;PingFang SC&quot;; font-size: 11px; text-rendering: geometricprecision; fill: rgb(255, 255, 255);">Gemm</text><title>Gemm_6</title></g><g class="node-attribute" transform="translate(0,20)"><path d="M0,0h100a0,0 0 0 1 0,0v37a5,5 0 0 1 -5,5h-90a5,5 0 0 1 -5,-5v-37a0,0 0 0 1 0,0z" style="stroke: rgb(0, 0, 0); fill: rgb(255, 255, 255); stroke-width: 0;"/><text id="initializer-dense1.weight" xml:space="preserve" x="6" y="12" style="font-family: -apple-system, BlinkMacSystemFont, &quot;Segoe WPC&quot;, &quot;Segoe UI&quot;, Ubuntu, &quot;Droid Sans&quot;, sans-serif, &quot;PingFang SC&quot;; font-size: 9px; font-weight: normal; text-rendering: geometricprecision;"><title>float32[32,256]</title><tspan style="font-weight: bold;">B</tspan><tspan>〈32×256〉</tspan></text><text id="initializer-dense1.bias" xml:space="preserve" x="6" y="24" style="font-family: -apple-system, BlinkMacSystemFont, &quot;Segoe WPC&quot;, &quot;Segoe UI&quot;, Ubuntu, &quot;Droid Sans&quot;, sans-serif, &quot;PingFang SC&quot;; font-size: 9px; font-weight: normal; text-rendering: geometricprecision;"><title>float32[32]</title><tspan style="font-weight: bold;">C</tspan><tspan>〈32〉</tspan></text><text xml:space="preserve" x="6" y="36" style="font-family: -apple-system, BlinkMacSystemFont, &quot;Segoe WPC&quot;, &quot;Segoe UI&quot;, Ubuntu, &quot;Droid Sans&quot;, sans-serif, &quot;PingFang SC&quot;; font-size: 9px; font-weight: normal; text-rendering: geometricprecision;"><title>int64</title><tspan>transB</tspan><tspan> = 1</tspan></text><line class="node" x1="0" x2="100" y1="0" y2="0" style="stroke: rgb(51, 51, 51); fill: none; stroke-width: 1px;"/></g><path class="node border" d="M5,0h90a5,5 0 0 1 5,5v52a5,5 0 0 1 -5,5h-90a5,5 0 0 1 -5,-5v-52a5,5 0 0 1 5,-5z" style="stroke: rgb(51, 51, 51); fill: none; stroke-width: 1px;"/></g></g></g><g id="node-name-Gemm_7" class="node graph-node" transform="translate(835.9375,49)" style="opacity: 1;"><g transform="translate(-50,-31)"><g><g class="node-item node-item-type node-item-type-layer" transform="translate(0,0)"><path d="M5,0h90a5,5 0 0 1 5,5v15a0,0 0 0 1 0,0h-100a0,0 0 0 1 0,0v-15a5,5 0 0 1 5,-5z" style="stroke: rgb(0, 0, 0); fill: rgb(51, 85, 136); stroke-width: 0;"/><text x="6" y="14" style="font-family: -apple-system, BlinkMacSystemFont, &quot;Segoe WPC&quot;, &quot;Segoe UI&quot;, Ubuntu, &quot;Droid Sans&quot;, sans-serif, &quot;PingFang SC&quot;; font-size: 11px; text-rendering: geometricprecision; fill: rgb(255, 255, 255);">Gemm</text><title>Gemm_7</title></g><g class="node-attribute" transform="translate(0,20)"><path d="M0,0h100a0,0 0 0 1 0,0v37a5,5 0 0 1 -5,5h-90a5,5 0 0 1 -5,-5v-37a0,0 0 0 1 0,0z" style="stroke: rgb(0, 0, 0); fill: rgb(255, 255, 255); stroke-width: 0;"/><text id="initializer-head.weight" xml:space="preserve" x="6" y="12" style="font-family: -apple-system, BlinkMacSystemFont, &quot;Segoe WPC&quot;, &quot;Segoe UI&quot;, Ubuntu, &quot;Droid Sans&quot;, sans-serif, &quot;PingFang SC&quot;; font-size: 9px; font-weight: normal; text-rendering: geometricprecision;"><title>float32[16,32]</title><tspan style="font-weight: bold;">B</tspan><tspan>〈16×32〉</tspan></text><text id="initializer-head.bias" xml:space="preserve" x="6" y="24" style="font-family: -apple-system, BlinkMacSystemFont, &quot;Segoe WPC&quot;, &quot;Segoe UI&quot;, Ubuntu, &quot;Droid Sans&quot;, sans-serif, &quot;PingFang SC&quot;; font-size: 9px; font-weight: normal; text-rendering: geometricprecision;"><title>float32[16]</title><tspan style="font-weight: bold;">C</tspan><tspan>〈16〉</tspan></text><text xml:space="preserve" x="6" y="36" style="font-family: -apple-system, BlinkMacSystemFont, &quot;Segoe WPC&quot;, &quot;Segoe UI&quot;, Ubuntu, &quot;Droid Sans&quot;, sans-serif, &quot;PingFang SC&quot;; font-size: 9px; font-weight: normal; text-rendering: geometricprecision;"><title>int64</title><tspan>transB</tspan><tspan> = 1</tspan></text><line class="node" x1="0" x2="100" y1="0" y2="0" style="stroke: rgb(51, 51, 51); fill: none; stroke-width: 1px;"/></g><path class="node border" d="M5,0h90a5,5 0 0 1 5,5v52a5,5 0 0 1 -5,5h-90a5,5 0 0 1 -5,-5v-52a5,5 0 0 1 5,-5z" style="stroke: rgb(51, 51, 51); fill: none; stroke-width: 1px;"/></g></g></g><g id="input-name-input" class="node graph-input" transform="translate(20.4453125,49)" style="opacity: 1;"><g transform="translate(-20.4453125,-10)"><g><g class="node-item graph-item-input" transform="translate(0,0)"><path d="M5,0h30.890625a5,5 0 0 1 5,5v10a5,5 0 0 1 -5,5h-30.890625a5,5 0 0 1 -5,-5v-10a5,5 0 0 1 5,-5z" style="stroke: rgb(0, 0, 0); fill: rgb(238, 238, 238); stroke-width: 0;"/><text x="6" y="14" style="font-family: -apple-system, BlinkMacSystemFont, &quot;Segoe WPC&quot;, &quot;Segoe UI&quot;, Ubuntu, &quot;Droid Sans&quot;, sans-serif, &quot;PingFang SC&quot;; font-size: 11px; text-rendering: geometricprecision;">input</text><title>float32[128,9,40,60]</title></g><path class="node border" d="M5,0h30.890625a5,5 0 0 1 5,5v10a5,5 0 0 1 -5,5h-30.890625a5,5 0 0 1 -5,-5v-10a5,5 0 0 1 5,-5z" style="stroke: rgb(51, 51, 51); fill: none; stroke-width: 1px;"/></g></g></g><g class="node" transform="translate(964.65625,49)" style="opacity: 1;"><g transform="translate(-24.515625,-10)"><g><g class="node-item graph-item-output" transform="translate(0,0)"><path d="M5,0h39.03125a5,5 0 0 1 5,5v10a5,5 0 0 1 -5,5h-39.03125a5,5 0 0 1 -5,-5v-10a5,5 0 0 1 5,-5z" style="stroke: rgb(0, 0, 0); fill: rgb(238, 238, 238); stroke-width: 0;"/><text x="6" y="14" style="font-family: -apple-system, BlinkMacSystemFont, &quot;Segoe WPC&quot;, &quot;Segoe UI&quot;, Ubuntu, &quot;Droid Sans&quot;, sans-serif, &quot;PingFang SC&quot;; font-size: 11px; text-rendering: geometricprecision;">output</text><title>float32[128,16]</title></g><path class="node border" d="M5,0h39.03125a5,5 0 0 1 5,5v10a5,5 0 0 1 -5,5h-39.03125a5,5 0 0 1 -5,-5v-10a5,5 0 0 1 5,-5z" style="stroke: rgb(51, 51, 51); fill: none; stroke-width: 1px;"/></g></g></g></g></g></svg>